<svg width="347" height="41" viewBox="0 0 347 41" fill="none" xmlns="http://www.w3.org/2000/svg">
<rect x="119" y="1" width="109" height="39" rx="19.5" fill="#0D3D18"/>
<path d="M142.58 27H135V13H142.58V14.18H136.32V19.58H141.38V20.72H136.32V25.82H142.58V27ZM151.924 25.74C151.231 26.3533 150.504 26.7667 149.744 26.98C148.998 27.18 148.271 27.2 147.564 27.04C146.858 26.8933 146.218 26.5933 145.644 26.14C145.071 25.6733 144.618 25.0867 144.284 24.38C143.951 23.66 143.784 22.84 143.784 21.92C143.784 21.0133 143.951 20.2133 144.284 19.52C144.618 18.8267 145.071 18.2667 145.644 17.84C146.218 17.4133 146.858 17.1333 147.564 17C148.271 16.8667 149.004 16.9067 149.764 17.12C150.524 17.32 151.251 17.7133 151.944 18.3L151.144 19.26C150.491 18.74 149.811 18.4267 149.104 18.32C148.398 18.2133 147.738 18.2933 147.124 18.56C146.524 18.8133 146.038 19.2267 145.664 19.8C145.291 20.3733 145.104 21.08 145.104 21.92C145.104 22.8133 145.298 23.5733 145.684 24.2C146.071 24.8133 146.571 25.2667 147.184 25.56C147.811 25.84 148.471 25.92 149.164 25.8C149.871 25.68 150.538 25.32 151.164 24.72L151.924 25.74ZM157.999 27.24C157.053 27.24 156.213 27.0333 155.479 26.62C154.759 26.1933 154.193 25.6067 153.779 24.86C153.366 24.1 153.159 23.22 153.159 22.22C153.159 21.0467 153.373 20.0667 153.799 19.28C154.239 18.4933 154.826 17.9 155.559 17.5C156.293 17.1 157.106 16.9 157.999 16.9C158.946 16.9 159.786 17.1 160.519 17.5C161.253 17.9 161.819 18.4933 162.219 19.28C162.633 20.0667 162.839 21.0467 162.839 22.22C162.839 23.22 162.633 24.1 162.219 24.86C161.819 25.6067 161.253 26.1933 160.519 26.62C159.786 27.0333 158.946 27.24 157.999 27.24ZM157.999 25.96C158.759 25.96 159.406 25.7933 159.939 25.46C160.473 25.1267 160.873 24.68 161.139 24.12C161.419 23.5467 161.559 22.9133 161.559 22.22C161.559 21.0467 161.253 20.08 160.639 19.32C160.026 18.56 159.146 18.18 157.999 18.18C157.213 18.18 156.553 18.36 156.019 18.72C155.499 19.0667 155.106 19.5467 154.839 20.16C154.573 20.76 154.439 21.4467 154.439 22.22C154.439 22.9267 154.573 23.5667 154.839 24.14C155.106 24.7 155.499 25.1467 156.019 25.48C156.553 25.8 157.213 25.96 157.999 25.96Z" fill="white"/>
<circle cx="208" cy="20" r="20" fill="#CBCEEA"/>
<rect y="1" width="107" height="39" rx="19.5" fill="#0D203E"/>
<path d="M26.5 14.22H20.32V19.54H25.3V20.72H20.32V27H19V13H26.5V14.22ZM30.0506 27.1C29.4373 27.0867 28.8773 26.9733 28.3706 26.76C27.864 26.5467 27.4573 26.22 27.1506 25.78C26.844 25.34 26.6906 24.7933 26.6906 24.14C26.6906 23.1133 26.984 22.3133 27.5706 21.74C28.1573 21.1667 28.9706 20.8067 30.0106 20.66C31.0506 20.5133 32.2506 20.56 33.6106 20.8V20.04C33.6106 19.52 33.4506 19.1133 33.1306 18.82C32.824 18.5133 32.424 18.3067 31.9306 18.2C31.4506 18.0933 30.9373 18.08 30.3906 18.16C29.8573 18.24 29.3573 18.4067 28.8906 18.66C28.4373 18.9133 28.0906 19.24 27.8506 19.64L26.9906 18.74C27.3906 18.2467 27.864 17.8533 28.4106 17.56C28.9706 17.2667 29.5573 17.08 30.1706 17C30.784 16.9067 31.3773 16.9067 31.9506 17C32.5373 17.0933 33.0573 17.2733 33.5106 17.54C34.0306 17.8067 34.384 18.16 34.5706 18.6C34.7706 19.04 34.884 19.5533 34.9106 20.14C34.9373 20.7133 34.9573 21.34 34.9706 22.02L34.9506 27H33.6306V26.06C33.124 26.4067 32.5506 26.6667 31.9106 26.84C31.284 27.0133 30.664 27.1 30.0506 27.1ZM33.6106 24.78V21.86C32.5173 21.7133 31.5373 21.68 30.6706 21.76C29.8173 21.84 29.144 22.0733 28.6506 22.46C28.1706 22.8467 27.9306 23.4067 27.9306 24.14C27.9306 24.6067 28.064 24.9733 28.3306 25.24C28.6106 25.5067 28.964 25.6867 29.3906 25.78C29.8306 25.86 30.304 25.8733 30.8106 25.82C31.3306 25.7667 31.8373 25.6533 32.3306 25.48C32.824 25.2933 33.2506 25.06 33.6106 24.78ZM36.7688 25.92L37.5488 25.04C37.9888 25.36 38.4221 25.6067 38.8488 25.78C39.2888 25.94 39.7221 26.0133 40.1488 26C40.4154 26 40.6688 25.96 40.9088 25.88C41.1621 25.8 41.4021 25.68 41.6288 25.52C41.9088 25.3067 42.1021 25.04 42.2088 24.72C42.3154 24.4 42.3088 24.0867 42.1888 23.78C42.0821 23.4733 41.8821 23.2267 41.5888 23.04C41.3088 22.8533 40.9754 22.6933 40.5888 22.56C40.2154 22.4267 39.8288 22.3 39.4288 22.18C39.0288 22.0467 38.6488 21.88 38.2888 21.68C37.6621 21.32 37.2421 20.8867 37.0288 20.38C36.8288 19.8733 36.8021 19.3733 36.9488 18.88C37.0954 18.3733 37.3888 17.94 37.8288 17.58C38.2821 17.22 38.8488 17.0067 39.5288 16.94C40.2088 16.8733 40.8821 16.9333 41.5488 17.12C42.2154 17.3067 42.7354 17.5733 43.1088 17.92L42.2888 18.74C41.9154 18.5267 41.5154 18.3667 41.0888 18.26C40.6754 18.14 40.2821 18.08 39.9088 18.08C39.4421 18.0933 39.0421 18.2067 38.7088 18.42C38.3888 18.6333 38.2088 18.96 38.1688 19.4C38.1154 19.8133 38.2221 20.14 38.4888 20.38C38.7688 20.62 39.1554 20.8267 39.6488 21C40.1554 21.1733 40.7221 21.3667 41.3488 21.58C42.0954 21.8467 42.6621 22.2533 43.0488 22.8C43.4488 23.3467 43.5554 24.0267 43.3688 24.84C43.2488 25.5067 42.9421 26.0333 42.4488 26.42C41.9688 26.7933 41.3888 27.02 40.7088 27.1C40.0421 27.1933 39.3554 27.1467 38.6488 26.96C37.9554 26.76 37.3288 26.4133 36.7688 25.92ZM46.7333 22.76V18.22H44.9133V17H46.7333V13H48.0533V17H49.8933V18.22H48.0533V22.76C48.0533 23.6267 48.0666 24.2733 48.0933 24.7C48.1333 25.1133 48.2266 25.3933 48.3733 25.54C48.5333 25.6733 48.8133 25.74 49.2133 25.74H49.7533V27.06H49.2533C48.6799 27.06 48.2266 27.0067 47.8933 26.9C47.5599 26.78 47.3066 26.5733 47.1333 26.28C46.9733 25.9733 46.8666 25.54 46.8133 24.98C46.7599 24.4067 46.7333 23.6667 46.7333 22.76Z" fill="white"/>
<circle cx="87" cy="21" r="20" fill="#CBCEEA"/>
<rect x="240" y="1" width="107" height="39" rx="19.5" fill="#3E300D"/>
<path d="M258.805 25.15C258.075 25.15 257.395 25.01 256.765 24.73C256.145 24.45 255.595 24.07 255.115 23.59C254.635 23.11 254.26 22.55 253.99 21.91C253.73 21.26 253.6 20.54 253.6 19.75C253.6 18.99 253.73 18.28 253.99 17.62C254.26 16.96 254.635 16.39 255.115 15.91C255.595 15.43 256.145 15.05 256.765 14.77C257.395 14.49 258.075 14.35 258.805 14.35C259.535 14.35 260.22 14.495 260.86 14.785C261.51 15.075 262.095 15.505 262.615 16.075L261.82 16.705C261.41 16.265 260.945 15.925 260.425 15.685C259.915 15.435 259.375 15.31 258.805 15.31C258.215 15.31 257.67 15.425 257.17 15.655C256.67 15.885 256.225 16.205 255.835 16.615C255.455 17.005 255.155 17.47 254.935 18.01C254.715 18.54 254.605 19.12 254.605 19.75C254.605 20.39 254.715 20.975 254.935 21.505C255.155 22.035 255.455 22.5 255.835 22.9C256.225 23.3 256.67 23.615 257.17 23.845C257.67 24.075 258.215 24.19 258.805 24.19C259.375 24.19 259.915 24.07 260.425 23.83C260.945 23.58 261.41 23.235 261.82 22.795L262.615 23.44C262.095 24.01 261.51 24.44 260.86 24.73C260.22 25.01 259.535 25.15 258.805 25.15ZM270.44 25H269.45V20.485C269.45 19.745 269.24 19.205 268.82 18.865C268.4 18.525 267.855 18.355 267.185 18.355C266.815 18.355 266.46 18.43 266.12 18.58C265.79 18.73 265.515 18.925 265.295 19.165C265.085 19.405 264.98 19.65 264.98 19.9V25H263.99V14.5H264.98V18.355C265.26 18.015 265.615 17.775 266.045 17.635C266.475 17.495 266.87 17.425 267.23 17.425C268.23 17.455 269.015 17.725 269.585 18.235C270.155 18.745 270.44 19.495 270.44 20.485V25ZM278.697 21.505H272.667C272.677 22.215 272.852 22.785 273.192 23.215C273.532 23.645 273.967 23.935 274.497 24.085C275.037 24.225 275.617 24.23 276.237 24.1C276.857 23.97 277.452 23.695 278.022 23.275L278.532 24.055C278.062 24.415 277.567 24.68 277.047 24.85C276.527 25.02 276.002 25.115 275.472 25.135C274.232 25.175 273.277 24.83 272.607 24.1C271.937 23.37 271.602 22.355 271.602 21.055C271.602 19.935 271.912 19.05 272.532 18.4C273.152 17.75 274.067 17.425 275.277 17.425C276.047 17.425 276.707 17.585 277.257 17.905C277.817 18.225 278.227 18.7 278.487 19.33C278.607 19.62 278.682 19.95 278.712 20.32C278.742 20.69 278.737 21.085 278.697 21.505ZM275.307 18.355C274.837 18.355 274.402 18.435 274.002 18.595C273.602 18.755 273.277 19.005 273.027 19.345C272.787 19.675 272.667 20.11 272.667 20.65H277.797C277.797 19.89 277.572 19.32 277.122 18.94C276.672 18.55 276.067 18.355 275.307 18.355ZM282.59 25.075C282.13 25.065 281.71 24.98 281.33 24.82C280.95 24.66 280.645 24.415 280.415 24.085C280.185 23.755 280.07 23.345 280.07 22.855C280.07 22.085 280.29 21.485 280.73 21.055C281.17 20.625 281.78 20.355 282.56 20.245C283.34 20.135 284.24 20.17 285.26 20.35V19.78C285.26 19.39 285.14 19.085 284.9 18.865C284.67 18.635 284.37 18.48 284 18.4C283.64 18.32 283.255 18.31 282.845 18.37C282.445 18.43 282.07 18.555 281.72 18.745C281.38 18.935 281.12 19.18 280.94 19.48L280.295 18.805C280.595 18.435 280.95 18.14 281.36 17.92C281.78 17.7 282.22 17.56 282.68 17.5C283.14 17.43 283.585 17.43 284.015 17.5C284.455 17.57 284.845 17.705 285.185 17.905C285.575 18.105 285.84 18.37 285.98 18.7C286.13 19.03 286.215 19.415 286.235 19.855C286.255 20.285 286.27 20.755 286.28 21.265L286.265 25H285.275V24.295C284.895 24.555 284.465 24.75 283.985 24.88C283.515 25.01 283.05 25.075 282.59 25.075ZM285.26 23.335V21.145C284.44 21.035 283.705 21.01 283.055 21.07C282.415 21.13 281.91 21.305 281.54 21.595C281.18 21.885 281 22.305 281 22.855C281 23.205 281.1 23.48 281.3 23.68C281.51 23.88 281.775 24.015 282.095 24.085C282.425 24.145 282.78 24.155 283.16 24.115C283.55 24.075 283.93 23.99 284.3 23.86C284.67 23.72 284.99 23.545 285.26 23.335ZM288.768 28H287.778V17.5H288.768V17.95C289.488 17.6 290.178 17.425 290.838 17.425C291.508 17.425 292.103 17.58 292.623 17.89C293.153 18.2 293.568 18.645 293.868 19.225C294.168 19.805 294.318 20.495 294.318 21.295C294.318 22.035 294.178 22.69 293.898 23.26C293.618 23.83 293.218 24.275 292.698 24.595C292.178 24.915 291.563 25.075 290.853 25.075C290.553 25.075 290.223 25.045 289.863 24.985C289.503 24.925 289.138 24.78 288.768 24.55V28ZM288.768 23.515C289.318 23.845 289.863 24.035 290.403 24.085C290.943 24.135 291.433 24.06 291.873 23.86C292.313 23.66 292.663 23.345 292.923 22.915C293.193 22.475 293.328 21.935 293.328 21.295C293.328 20.635 293.193 20.085 292.923 19.645C292.653 19.195 292.298 18.87 291.858 18.67C291.418 18.46 290.928 18.385 290.388 18.445C289.848 18.505 289.308 18.715 288.768 19.075V23.515Z" fill="white"/>
<circle cx="327" cy="21" r="20" fill="#CBCEEA"/>
<path d="M321.473 23.502C321.921 23.4367 322.257 23.285 322.481 23.047C322.705 22.8043 322.817 22.4823 322.817 22.081C322.817 21.9223 322.789 21.7847 322.733 21.668C322.677 21.5467 322.6 21.4393 322.502 21.346C322.404 21.2527 322.287 21.171 322.152 21.101C322.017 21.0263 321.87 20.961 321.711 20.905L321.473 23.502ZM320.934 16.362C320.696 16.3947 320.493 16.4483 320.325 16.523C320.157 16.593 320.019 16.6793 319.912 16.782C319.809 16.8847 319.732 16.999 319.681 17.125C319.634 17.2463 319.611 17.377 319.611 17.517C319.611 17.6757 319.637 17.818 319.688 17.944C319.744 18.0653 319.821 18.175 319.919 18.273C320.017 18.371 320.134 18.4597 320.269 18.539C320.404 18.6137 320.554 18.6813 320.717 18.742L320.934 16.362ZM321.872 19.12C322.096 19.1853 322.32 19.2577 322.544 19.337C322.768 19.4117 322.983 19.498 323.188 19.596C323.393 19.694 323.585 19.8083 323.762 19.939C323.939 20.0697 324.093 20.2237 324.224 20.401C324.359 20.5737 324.464 20.7743 324.539 21.003C324.614 21.2317 324.651 21.493 324.651 21.787C324.651 22.221 324.576 22.6317 324.427 23.019C324.282 23.4017 324.068 23.7423 323.783 24.041C323.498 24.335 323.151 24.5753 322.74 24.762C322.329 24.9487 321.858 25.0607 321.326 25.098L321.242 26.05C321.233 26.1713 321.181 26.281 321.088 26.379C320.995 26.477 320.873 26.526 320.724 26.526H320.017L320.15 25.049C319.884 25.0117 319.62 24.9557 319.359 24.881C319.102 24.8017 318.855 24.7083 318.617 24.601C318.379 24.489 318.155 24.3653 317.945 24.23C317.735 24.09 317.546 23.9383 317.378 23.775L317.973 22.9C318.024 22.8253 318.094 22.7647 318.183 22.718C318.272 22.6667 318.363 22.641 318.456 22.641C318.563 22.641 318.675 22.6737 318.792 22.739C318.909 22.8043 319.037 22.8837 319.177 22.977C319.322 23.0657 319.483 23.1567 319.66 23.25C319.842 23.3433 320.052 23.4157 320.29 23.467L320.556 20.562C320.332 20.5013 320.108 20.4337 319.884 20.359C319.665 20.2797 319.452 20.1887 319.247 20.086C319.042 19.9833 318.85 19.8643 318.673 19.729C318.5 19.589 318.349 19.4233 318.218 19.232C318.087 19.0407 317.985 18.8213 317.91 18.574C317.835 18.322 317.798 18.0327 317.798 17.706C317.798 17.342 317.87 16.9897 318.015 16.649C318.16 16.3037 318.37 15.9957 318.645 15.725C318.925 15.4543 319.268 15.2327 319.674 15.06C320.08 14.8827 320.547 14.78 321.074 14.752L321.151 13.919C321.16 13.7977 321.212 13.6903 321.305 13.597C321.403 13.499 321.524 13.45 321.669 13.45H322.383L322.257 14.822C322.761 14.9107 323.193 15.0553 323.552 15.256C323.911 15.4567 324.219 15.683 324.476 15.935L324 16.635C323.935 16.7423 323.865 16.8217 323.79 16.873C323.715 16.9197 323.627 16.943 323.524 16.943C323.454 16.943 323.37 16.9243 323.272 16.887C323.179 16.845 323.074 16.796 322.957 16.74C322.84 16.6793 322.71 16.6187 322.565 16.558C322.425 16.4973 322.276 16.446 322.117 16.404L321.872 19.12ZM329.594 23.502C330.042 23.4367 330.378 23.285 330.602 23.047C330.826 22.8043 330.938 22.4823 330.938 22.081C330.938 21.9223 330.91 21.7847 330.854 21.668C330.798 21.5467 330.721 21.4393 330.623 21.346C330.525 21.2527 330.408 21.171 330.273 21.101C330.138 21.0263 329.991 20.961 329.832 20.905L329.594 23.502ZM329.055 16.362C328.817 16.3947 328.614 16.4483 328.446 16.523C328.278 16.593 328.14 16.6793 328.033 16.782C327.93 16.8847 327.853 16.999 327.802 17.125C327.755 17.2463 327.732 17.377 327.732 17.517C327.732 17.6757 327.758 17.818 327.809 17.944C327.865 18.0653 327.942 18.175 328.04 18.273C328.138 18.371 328.255 18.4597 328.39 18.539C328.525 18.6137 328.675 18.6813 328.838 18.742L329.055 16.362ZM329.993 19.12C330.217 19.1853 330.441 19.2577 330.665 19.337C330.889 19.4117 331.104 19.498 331.309 19.596C331.514 19.694 331.706 19.8083 331.883 19.939C332.06 20.0697 332.214 20.2237 332.345 20.401C332.48 20.5737 332.585 20.7743 332.66 21.003C332.735 21.2317 332.772 21.493 332.772 21.787C332.772 22.221 332.697 22.6317 332.548 23.019C332.403 23.4017 332.189 23.7423 331.904 24.041C331.619 24.335 331.272 24.5753 330.861 24.762C330.45 24.9487 329.979 25.0607 329.447 25.098L329.363 26.05C329.354 26.1713 329.302 26.281 329.209 26.379C329.116 26.477 328.994 26.526 328.845 26.526H328.138L328.271 25.049C328.005 25.0117 327.741 24.9557 327.48 24.881C327.223 24.8017 326.976 24.7083 326.738 24.601C326.5 24.489 326.276 24.3653 326.066 24.23C325.856 24.09 325.667 23.9383 325.499 23.775L326.094 22.9C326.145 22.8253 326.215 22.7647 326.304 22.718C326.393 22.6667 326.484 22.641 326.577 22.641C326.684 22.641 326.796 22.6737 326.913 22.739C327.03 22.8043 327.158 22.8837 327.298 22.977C327.443 23.0657 327.604 23.1567 327.781 23.25C327.963 23.3433 328.173 23.4157 328.411 23.467L328.677 20.562C328.453 20.5013 328.229 20.4337 328.005 20.359C327.786 20.2797 327.573 20.1887 327.368 20.086C327.163 19.9833 326.971 19.8643 326.794 19.729C326.621 19.589 326.47 19.4233 326.339 19.232C326.208 19.0407 326.106 18.8213 326.031 18.574C325.956 18.322 325.919 18.0327 325.919 17.706C325.919 17.342 325.991 16.9897 326.136 16.649C326.281 16.3037 326.491 15.9957 326.766 15.725C327.046 15.4543 327.389 15.2327 327.795 15.06C328.201 14.8827 328.668 14.78 329.195 14.752L329.272 13.919C329.281 13.7977 329.333 13.6903 329.426 13.597C329.524 13.499 329.645 13.45 329.79 13.45H330.504L330.378 14.822C330.882 14.9107 331.314 15.0553 331.673 15.256C332.032 15.4567 332.34 15.683 332.597 15.935L332.121 16.635C332.056 16.7423 331.986 16.8217 331.911 16.873C331.836 16.9197 331.748 16.943 331.645 16.943C331.575 16.943 331.491 16.9243 331.393 16.887C331.3 16.845 331.195 16.796 331.078 16.74C330.961 16.6793 330.831 16.6187 330.686 16.558C330.546 16.4973 330.397 16.446 330.238 16.404L329.993 19.12Z" fill="black"/>
<path d="M81.018 20.016C80.906 20.072 80.7847 20.121 80.654 20.163C80.528 20.205 80.395 20.2447 80.255 20.282C80.535 20.3473 80.7893 20.436 81.018 20.548L83.307 21.745C83.4283 21.801 83.5123 21.871 83.559 21.955C83.6103 22.039 83.636 22.1323 83.636 22.235V23.593L78.029 20.66V19.897L83.636 16.971V18.329C83.636 18.427 83.6103 18.518 83.559 18.602C83.5123 18.686 83.4283 18.756 83.307 18.812L81.018 20.016ZM89.1391 20.016C89.0271 20.072 88.9058 20.121 88.7751 20.163C88.6491 20.205 88.5161 20.2447 88.3761 20.282C88.6561 20.3473 88.9104 20.436 89.1391 20.548L91.4281 21.745C91.5494 21.801 91.6334 21.871 91.6801 21.955C91.7314 22.039 91.7571 22.1323 91.7571 22.235V23.593L86.1501 20.66V19.897L91.7571 16.971V18.329C91.7571 18.427 91.7314 18.518 91.6801 18.602C91.6334 18.686 91.5494 18.756 91.4281 18.812L89.1391 20.016Z" fill="black"/>
<path d="M207.529 19.2688C206.871 19.2688 206.321 19.8071 206.321 20.4705C206.321 21.1289 206.871 21.6787 207.529 21.6787C209.139 21.6787 209.139 19.2688 207.529 19.2688ZM207.529 20.0321C207.777 20.0321 207.967 20.2226 207.967 20.4698C207.967 20.7171 207.777 20.9075 207.529 20.9075C207.282 20.9075 207.092 20.7171 207.092 20.4698C207.092 20.2226 207.282 20.0321 207.529 20.0321V20.0321ZM196.621 9C196.554 9 196.52 9.0115 196.288 9.03738C196.052 9.06684 195.974 9.34788 196.029 9.644C196.082 9.943 196.098 9.84237 196.217 10.0149C196.337 10.1867 200.267 13.9824 202.303 15.9697L198.695 19.6691C197.496 20.8967 196.864 22.7878 196.495 24.8757C196.124 26.9652 196.029 29.2781 196 31.379C196.004 31.6816 196.228 31.9367 196.532 31.9705C196.569 31.9741 196.607 31.9741 196.644 31.9705C196.782 31.959 196.914 31.8958 197.011 31.7944H197.018L202.97 25.6887C206.822 29.2565 206.916 30.5589 211.876 31.5055C213.965 31.8728 216.278 31.9705 218.379 32C218.678 32 218.933 31.7757 218.971 31.476L218.978 31.4681C218.981 31.4272 218.978 31.3819 218.971 31.3409C218.955 31.2065 218.896 31.0829 218.802 30.9851V30.9787L212.689 25.0303L216.17 21.4588C216.216 21.4178 216.257 21.3726 216.297 21.3316L216.305 21.3237C217.504 20.0961 218.143 18.2129 218.513 16.125C218.881 14.032 218.971 11.7226 219 9.62172C219 9.32272 218.776 9.06756 218.476 9.03019L218.468 9.01941C218.427 9.01941 218.382 9.01941 218.341 9.02587C218.207 9.04097 218.083 9.10062 217.989 9.19837H217.983L212.031 15.2998L208.332 11.6946C207.104 10.4964 205.217 9.85747 203.125 9.48659C200.965 9.25084 198.797 9.03306 196.622 9H196.621ZM197.082 9.80141C199.036 9.83878 201.121 9.91713 202.989 10.247C205.007 10.6028 206.755 11.2353 207.793 12.2502H207.799L207.9 12.3544C207.923 12.3767 207.946 12.4069 207.972 12.4328C207.972 12.4363 207.975 12.4363 207.975 12.4407L207.987 12.4486L207.998 12.4629V12.4708C208.001 12.4744 208.005 12.4744 208.005 12.4788C208.128 12.6477 208.346 12.9761 208.409 13.1148C208.454 13.2126 208.495 13.3132 208.536 13.4253C208.709 13.9234 208.795 14.5444 208.735 15.3279V15.3343C208.72 15.5104 208.697 15.6901 208.672 15.8813C208.656 15.9704 208.638 16.0718 208.623 16.1767C208.582 16.3866 208.536 16.5886 208.488 16.7948C208.462 16.9034 208.432 17.0155 208.401 17.1276V17.1355C208.278 17.5812 208.114 18.0721 207.912 18.5924C207.863 18.724 207.814 18.8505 207.759 18.9892C207.713 19.0934 207.665 19.2027 207.616 19.3148L207.368 19.3629C206.53 17.7759 205.613 16.6798 204.793 16.0502C204.377 15.7361 203.992 15.5334 203.617 15.4515H203.614C203.244 15.3703 202.847 15.4256 202.588 15.6908L202.622 15.7627L202.929 15.5334L197.082 9.80141ZM218.199 10.0781C218.165 12.0324 218.086 14.1211 217.753 15.9891C217.397 18.0067 216.769 19.7554 215.75 20.7961L215.646 20.8932C215.62 20.9198 215.586 20.9499 215.556 20.9758L215.541 20.9952H215.533C215.369 21.1152 215.027 21.3395 214.889 21.4028C214.792 21.448 214.688 21.5005 214.579 21.5379H214.571C214.077 21.7068 213.456 21.7887 212.673 21.7283C212.501 21.714 212.313 21.6989 212.123 21.673L211.835 21.6241H211.828C211.618 21.5832 211.416 21.5379 211.21 21.489H211.202C211.09 21.4595 210.982 21.4257 210.874 21.3963C210.379 21.2612 209.893 21.1002 209.413 20.9169C209.282 20.8644 209.148 20.8076 209.009 20.7523C208.908 20.7113 208.807 20.6696 208.706 20.6251C208.718 20.5647 208.631 20.7192 208.706 20.6251C208.71 20.5309 208.695 20.4382 208.657 20.3519C210.226 19.5175 211.322 18.6104 211.948 17.7953C212.267 17.3792 212.472 16.9867 212.554 16.6159C212.64 16.2457 212.581 15.8418 212.315 15.583L212.323 15.5909L212.428 15.928L218.199 10.0781ZM209.319 13.7387L211.749 16.1048L211.76 16.1199L211.775 16.1307C211.812 16.1681 211.85 16.24 211.805 16.4491C211.782 16.5433 211.667 16.7043 211.606 16.8236C211.528 16.9846 211.494 17.1118 211.345 17.3066C210.821 17.9765 209.795 18.8073 208.338 19.5865C208.383 19.4823 208.424 19.3802 208.465 19.2796C208.521 19.1408 208.574 18.9985 208.626 18.8634C208.836 18.3172 209.012 17.8047 209.143 17.3282C209.236 16.9918 209.316 16.6504 209.379 16.3104V16.3025C209.394 16.1983 209.42 16.0962 209.436 15.992C209.461 15.79 209.484 15.5917 209.499 15.389C209.548 14.7414 209.432 14.244 209.318 13.7416L209.319 13.7387ZM203.449 16.199C204.976 16.8868 205.973 18.5198 206.591 19.6655C206.485 19.6167 206.385 19.5793 206.28 19.534C206.137 19.4787 205.999 19.4255 205.861 19.373C205.363 19.1746 204.849 19.0028 204.333 18.8562H204.33C204.21 18.8224 204.094 18.793 203.982 18.7635C203.754 18.7067 203.525 18.6622 203.312 18.6205C203.208 18.6054 203.098 18.591 202.993 18.5716V18.5637C202.791 18.5378 202.593 18.5155 202.39 18.5004C201.738 18.4516 201.238 18.5637 200.735 18.6765L203.105 16.25L203.131 16.2206C203.168 16.1832 203.24 16.1458 203.449 16.1947V16.199ZM202.33 19.2688C202.503 19.2803 202.687 19.3026 202.877 19.332H202.885C202.974 19.3471 203.072 19.3615 203.172 19.3809C203.371 19.4183 203.573 19.4636 203.791 19.516L203.959 19.557C204.015 19.5714 204.068 19.5829 204.124 19.598H204.127C204.58 19.7245 205.063 19.8855 205.587 20.0874C205.719 20.1363 205.853 20.1888 205.988 20.2405C206.103 20.2894 206.22 20.3419 206.336 20.3907L206.351 20.6445C204.778 21.4789 203.678 22.3896 203.052 23.2054C202.734 23.6215 202.528 24.0068 202.446 24.3812V24.3892C202.36 24.7593 202.42 25.1561 202.686 25.4148H202.678L202.497 25.0928L196.808 30.9097C196.845 28.9597 196.916 26.8782 197.246 25.0102C197.601 22.9926 198.234 21.2475 199.249 20.2068V20.2003C199.271 20.1737 199.297 20.155 199.324 20.1284L199.353 20.1025C199.379 20.0731 199.41 20.0458 199.439 20.0242H199.447C199.451 20.0206 199.454 20.0127 199.458 20.0091C199.622 19.8891 199.972 19.6576 200.11 19.5901C200.214 19.5448 200.32 19.5002 200.428 19.4628C200.926 19.2903 201.547 19.2041 202.334 19.2645L202.33 19.2688ZM207.272 19.4593C206.872 19.5865 206.602 19.8596 206.471 20.2563L206.893 19.7884L207.272 19.4593ZM207.793 19.4851L207.964 19.7963L208.107 19.8855L208.493 20.1895C208.355 19.8524 208.137 19.6088 207.797 19.4887L207.793 19.4851ZM207.519 19.9832C207.815 19.9832 208.046 20.2154 208.046 20.5115C208.05 20.8069 207.811 21.0462 207.519 21.0427C207.223 21.0462 206.984 20.8069 206.988 20.5115C206.988 20.2154 207.22 19.9832 207.519 19.9832ZM206.512 20.8105C206.646 21.1591 206.879 21.3948 207.227 21.5257L206.999 21.2604L206.804 21.0362L206.512 20.8105ZM208.488 20.8443L208.215 20.9571L208.16 21.1289L207.886 21.4394C208.163 21.305 208.361 21.1289 208.489 20.8479L208.488 20.8443ZM208.417 21.3345C208.518 21.3754 208.619 21.4286 208.72 21.4696C208.863 21.5249 209.001 21.5781 209.139 21.6306C209.678 21.8397 210.192 22.0079 210.667 22.1395C210.79 22.1768 210.91 22.2027 211.018 22.2336C211.25 22.289 211.475 22.3422 211.692 22.3831C211.792 22.3975 211.902 22.4126 212.01 22.432C212.216 22.4579 212.418 22.4838 212.613 22.5032C213.265 22.552 213.762 22.4363 214.267 22.3227L211.898 24.7528L211.883 24.7636L211.869 24.7787C211.834 24.8161 211.759 24.8499 211.557 24.8082H211.551C211.345 24.7593 211.041 24.6134 210.693 24.3403C210.024 23.8163 209.193 22.7907 208.417 21.3337V21.3345ZM206.661 21.4207L206.534 21.7233C206.479 21.862 206.425 22.0043 206.369 22.1395C206.175 22.6404 206.006 23.1508 205.861 23.6668C205.827 23.7904 205.797 23.9105 205.771 24.0226C205.715 24.2504 205.662 24.479 205.621 24.6925C205.603 24.801 205.587 24.9059 205.572 25.0145C205.543 25.2128 205.521 25.4112 205.501 25.6132C205.452 26.2651 205.568 26.7661 205.677 27.267L203.251 24.898L203.236 24.875L203.221 24.8686V24.8607C203.184 24.8233 203.15 24.7629 203.195 24.5566C203.195 24.553 203.195 24.553 203.195 24.5502C203.244 24.3439 203.394 24.0406 203.663 23.6927C204.184 23.0228 205.209 22.1919 206.662 21.4164L206.661 21.4207ZM207.657 21.668C208.488 23.2255 209.395 24.3252 210.207 24.9512C210.623 25.2696 211.008 25.4745 211.383 25.5571H211.391C211.761 25.6398 212.153 25.5837 212.416 25.3178L212.382 25.2509L212.09 25.5097L217.926 31.2029C215.972 31.1655 213.879 31.0872 212.012 30.7537C209.994 30.3979 208.245 29.7697 207.208 28.7548H207.202L207.149 28.7031C207.141 28.6952 207.138 28.6837 207.13 28.6722L207.1 28.6463C207.078 28.6204 207.048 28.5895 207.026 28.5601V28.5522C207.022 28.5486 207.011 28.5414 207.011 28.5378C206.857 28.3315 206.719 28.1144 206.592 27.8859C206.543 27.7852 206.502 27.676 206.464 27.5675C206.292 27.0694 206.206 26.452 206.266 25.6664C206.281 25.4939 206.303 25.3135 206.329 25.1194V25.1115C206.344 25.0224 206.363 24.9246 206.378 24.824C206.415 24.6256 206.461 24.4237 206.513 24.2059V24.198L206.558 24.037L206.599 23.8731V23.8652C206.723 23.416 206.883 22.933 207.089 22.4083C207.138 22.2768 207.195 22.1431 207.25 22.0079C207.295 21.8958 207.344 21.7873 207.393 21.6752L207.658 21.6601L207.657 21.668Z" fill="black"/>
</svg>
