<svg width="228" height="41" viewBox="0 0 228 41" fill="none" xmlns="http://www.w3.org/2000/svg">
<rect x="119" y="1" width="109" height="39" rx="19.5" fill="#2B5491"/>
<path d="M130 27V13H133.1L137.22 23.3L141.36 13H144.46V27H143.14V14.42H142.22L138.02 24.76H136.46L132.24 14.42H131.32V27H130ZM155.665 22.34H147.625C147.638 23.2867 147.872 24.0467 148.325 24.62C148.778 25.1933 149.358 25.58 150.065 25.78C150.785 25.9667 151.558 25.9733 152.385 25.8C153.212 25.6267 154.005 25.26 154.765 24.7L155.445 25.74C154.818 26.22 154.158 26.5733 153.465 26.8C152.772 27.0267 152.072 27.1533 151.365 27.18C149.712 27.2333 148.438 26.7733 147.545 25.8C146.652 24.8267 146.205 23.4733 146.205 21.74C146.205 20.2467 146.618 19.0667 147.445 18.2C148.272 17.3333 149.492 16.9 151.105 16.9C152.132 16.9 153.012 17.1133 153.745 17.54C154.492 17.9667 155.038 18.6 155.385 19.44C155.545 19.8267 155.645 20.2667 155.685 20.76C155.725 21.2533 155.718 21.78 155.665 22.34ZM151.145 18.14C150.518 18.14 149.938 18.2467 149.405 18.46C148.872 18.6733 148.438 19.0067 148.105 19.46C147.785 19.9 147.625 20.48 147.625 21.2H154.465C154.465 20.1867 154.165 19.4267 153.565 18.92C152.965 18.4 152.158 18.14 151.145 18.14ZM159.12 22.76V18.22H157.3V17H159.12V13H160.44V17H162.28V18.22H160.44V22.76C160.44 23.6267 160.453 24.2733 160.48 24.7C160.52 25.1133 160.613 25.3933 160.76 25.54C160.92 25.6733 161.2 25.74 161.6 25.74H162.14V27.06H161.64C161.067 27.06 160.613 27.0067 160.28 26.9C159.947 26.78 159.693 26.5733 159.52 26.28C159.36 25.9733 159.253 25.54 159.2 24.98C159.147 24.4067 159.12 23.6667 159.12 22.76ZM164.18 27V17.16H165.48V18.14C165.906 17.66 166.426 17.3467 167.04 17.2C167.666 17.0533 168.486 17.12 169.5 17.4L168.92 18.58C168.28 18.3533 167.7 18.3267 167.18 18.5C166.66 18.66 166.246 18.9333 165.94 19.32C165.633 19.7067 165.48 20.1067 165.48 20.52V27H164.18ZM174.738 27.24C173.791 27.24 172.951 27.0333 172.218 26.62C171.498 26.1933 170.931 25.6067 170.518 24.86C170.104 24.1 169.898 23.22 169.898 22.22C169.898 21.0467 170.111 20.0667 170.538 19.28C170.978 18.4933 171.564 17.9 172.298 17.5C173.031 17.1 173.844 16.9 174.738 16.9C175.684 16.9 176.524 17.1 177.258 17.5C177.991 17.9 178.558 18.4933 178.958 19.28C179.371 20.0667 179.578 21.0467 179.578 22.22C179.578 23.22 179.371 24.1 178.958 24.86C178.558 25.6067 177.991 26.1933 177.258 26.62C176.524 27.0333 175.684 27.24 174.738 27.24ZM174.738 25.96C175.498 25.96 176.144 25.7933 176.678 25.46C177.211 25.1267 177.611 24.68 177.878 24.12C178.158 23.5467 178.298 22.9133 178.298 22.22C178.298 21.0467 177.991 20.08 177.378 19.32C176.764 18.56 175.884 18.18 174.738 18.18C173.951 18.18 173.291 18.36 172.758 18.72C172.238 19.0667 171.844 19.5467 171.578 20.16C171.311 20.76 171.178 21.4467 171.178 22.22C171.178 22.9267 171.311 23.5667 171.578 24.14C171.844 24.7 172.238 25.1467 172.758 25.48C173.291 25.8 173.951 25.96 174.738 25.96Z" fill="white"/>
<circle cx="208" cy="20" r="20" fill="#CBCEEA"/>
<path d="M214.012 31.6667H202.987C201.075 31.6667 199.5 30.045 199.5 28.05V11.95C199.5 9.96667 201.064 8.33333 202.987 8.33333H214.012C215.925 8.33333 217.5 9.955 217.5 11.95V28.05C217.5 30.045 215.936 31.6667 214.012 31.6667Z" stroke="black" stroke-width="1.5" stroke-linecap="round" stroke-linejoin="round"/>
<path d="M215.812 21.1667H201.188C200.254 21.1667 199.5 20.385 199.5 19.4167V17.0833C199.5 16.115 200.254 15.3333 201.188 15.3333H215.812C216.746 15.3333 217.5 16.115 217.5 17.0833V19.4167C217.5 20.385 216.746 21.1667 215.812 21.1667Z" stroke="black" stroke-width="1.5" stroke-linecap="round" stroke-linejoin="round"/>
<path d="M204.557 26.65H204.566M212.432 26.65H212.442" stroke="black" stroke-width="2.5" stroke-linecap="round" stroke-linejoin="round"/>
<path d="M205.688 11.8333H211.312" stroke="black" stroke-width="1.5" stroke-linecap="round" stroke-linejoin="round"/>
<rect y="1" width="107" height="39" rx="19.5" fill="#2B5491"/>
<path d="M19 27V13H24.22C24.8867 13 25.48 13.1667 26 13.5C26.5333 13.82 26.9467 14.2533 27.24 14.8C27.5333 15.3467 27.68 15.9667 27.68 16.66C27.68 17.26 27.58 17.78 27.38 18.22C27.18 18.6467 26.8533 19.1267 26.4 19.66C27.1067 20.1 27.62 20.6067 27.94 21.18C28.26 21.74 28.42 22.3533 28.42 23.02C28.42 23.5 28.3267 23.98 28.14 24.46C27.9533 24.9267 27.6933 25.3533 27.36 25.74C27.0267 26.1267 26.6467 26.4333 26.22 26.66C25.7933 26.8867 25.3467 27 24.88 27H19ZM20.32 19.4H24.14C24.54 19.4 24.9067 19.2667 25.24 19C25.5733 18.7333 25.84 18.3933 26.04 17.98C26.2533 17.5533 26.36 17.1133 26.36 16.66C26.36 16.0067 26.1667 15.4533 25.78 15C25.4067 14.5333 24.8867 14.3 24.22 14.3H20.32V19.4ZM20.32 25.7H24.88C25.2933 25.7 25.6667 25.5667 26 25.3C26.3333 25.02 26.5933 24.6733 26.78 24.26C26.98 23.8467 27.08 23.4333 27.08 23.02C27.08 22.38 26.8867 21.82 26.5 21.34C26.1133 20.8467 25.5933 20.6 24.94 20.6H20.32V25.7ZM38.6709 27H37.3709V25.86C37.0643 26.2867 36.6576 26.6133 36.1509 26.84C35.6443 27.0533 35.0909 27.1733 34.4909 27.2C33.9043 27.2267 33.3243 27.1533 32.7509 26.98C32.1776 26.8067 31.6843 26.54 31.2709 26.18C30.8709 25.8333 30.5576 25.4 30.3309 24.88C30.1176 24.36 30.0109 23.7533 30.0109 23.06V17H31.3309V23.06C31.3309 24.06 31.6176 24.8 32.1909 25.28C32.7643 25.7467 33.4976 25.98 34.3909 25.98C34.8309 25.98 35.2776 25.88 35.7309 25.68C36.1976 25.4667 36.5843 25.1467 36.8909 24.72C37.2109 24.28 37.3709 23.7267 37.3709 23.06V17H38.6709V27ZM40.4797 25.92L41.2597 25.04C41.6997 25.36 42.133 25.6067 42.5597 25.78C42.9997 25.94 43.433 26.0133 43.8597 26C44.1264 26 44.3797 25.96 44.6197 25.88C44.873 25.8 45.113 25.68 45.3397 25.52C45.6197 25.3067 45.813 25.04 45.9197 24.72C46.0264 24.4 46.0197 24.0867 45.8997 23.78C45.793 23.4733 45.593 23.2267 45.2997 23.04C45.0197 22.8533 44.6864 22.6933 44.2997 22.56C43.9264 22.4267 43.5397 22.3 43.1397 22.18C42.7397 22.0467 42.3597 21.88 41.9997 21.68C41.373 21.32 40.953 20.8867 40.7397 20.38C40.5397 19.8733 40.513 19.3733 40.6597 18.88C40.8064 18.3733 41.0997 17.94 41.5397 17.58C41.993 17.22 42.5597 17.0067 43.2397 16.94C43.9197 16.8733 44.593 16.9333 45.2597 17.12C45.9264 17.3067 46.4464 17.5733 46.8197 17.92L45.9997 18.74C45.6264 18.5267 45.2264 18.3667 44.7997 18.26C44.3864 18.14 43.993 18.08 43.6197 18.08C43.153 18.0933 42.753 18.2067 42.4197 18.42C42.0997 18.6333 41.9197 18.96 41.8797 19.4C41.8264 19.8133 41.933 20.14 42.1997 20.38C42.4797 20.62 42.8664 20.8267 43.3597 21C43.8664 21.1733 44.433 21.3667 45.0597 21.58C45.8064 21.8467 46.373 22.2533 46.7597 22.8C47.1597 23.3467 47.2664 24.0267 47.0797 24.84C46.9597 25.5067 46.653 26.0333 46.1597 26.42C45.6797 26.7933 45.0997 27.02 44.4197 27.1C43.753 27.1933 43.0664 27.1467 42.3597 26.96C41.6664 26.76 41.0397 26.4133 40.4797 25.92Z" fill="white"/>
<circle cx="87" cy="21" r="20" fill="#CBCEEA"/>
<path d="M98.6177 10.8529C98.4332 10.5896 98.188 10.3747 97.9028 10.2262C97.6176 10.0777 97.3008 10.0001 96.9793 10H74C73.4697 10.0006 72.9614 10.2115 72.5864 10.5864C72.2115 10.9614 72.0006 11.4697 72 12V27.4999H74.5676C74.7433 28.4813 75.2586 29.3697 76.0231 30.0095C76.7877 30.6494 77.753 31 78.75 31C79.747 31 80.7123 30.6494 81.4769 30.0095C82.2414 29.3697 82.7567 28.4813 82.9324 27.4999H90.5676C90.7433 28.4813 91.2586 29.3697 92.0231 30.0095C92.7877 30.6494 93.753 31 94.75 31C95.747 31 96.7123 30.6494 97.4769 30.0095C98.2414 29.3697 98.7567 28.4813 98.9324 27.4999H102V16.1575C102 15.8497 101.906 15.5493 101.729 15.2974L98.6177 10.8529ZM82.25 12H91.25V18H82.25V12ZM74 12H80.25V18H74V12ZM78.75 28.9999C78.305 28.9999 77.87 28.868 77.5 28.6207C77.13 28.3735 76.8416 28.0221 76.6713 27.611C76.501 27.1998 76.4564 26.7474 76.5432 26.311C76.63 25.8745 76.8443 25.4736 77.159 25.1589C77.4737 24.8443 77.8746 24.63 78.311 24.5432C78.7475 24.4564 79.1999 24.5009 79.611 24.6712C80.0222 24.8415 80.3736 25.1299 80.6208 25.4999C80.868 25.8699 81 26.3049 81 26.7499C80.9993 27.3465 80.7621 27.9184 80.3403 28.3402C79.9184 28.762 79.3465 28.9993 78.75 28.9999V28.9999ZM94.75 28.9999C94.305 28.9999 93.87 28.868 93.5 28.6207C93.13 28.3735 92.8416 28.0221 92.6713 27.611C92.501 27.1998 92.4564 26.7474 92.5432 26.311C92.63 25.8745 92.8443 25.4736 93.159 25.1589C93.4737 24.8443 93.8746 24.63 94.311 24.5432C94.7475 24.4564 95.1999 24.5009 95.611 24.6712C96.0222 24.8415 96.3736 25.1299 96.6208 25.4999C96.868 25.8699 97 26.3049 97 26.7499C96.9993 27.3465 96.7621 27.9184 96.3403 28.3402C95.9184 28.762 95.3465 28.9993 94.75 28.9999V28.9999ZM100 25.4999H98.8121C98.5449 24.6312 98.0061 23.871 97.275 23.331C96.5439 22.791 95.6589 22.4996 94.75 22.4996C93.8411 22.4996 92.9561 22.791 92.225 23.331C91.4939 23.871 90.9551 24.6312 90.6879 25.4999H82.8121C82.5449 24.6312 82.0061 23.871 81.275 23.331C80.5439 22.791 79.6589 22.4996 78.75 22.4996C77.8411 22.4996 76.9561 22.791 76.225 23.331C75.4939 23.871 74.9551 24.6312 74.6879 25.4999H74V20H100V25.4999ZM100 18H93.25V12H96.9793L100 16.3152V18Z" fill="#0D132B"/>
</svg>
